Patient4_TMGait_0pt3_02_left_02_GRF.mot
version=1
nRows=58
nColumns=19
inDegrees=no
endheader
time	F1x	F1y	F1z	M1x	M1y	M1z	F2x	F2y	F2z	M2x	M2y	M2z	EC1x	EC1y	EC1z	EC2x	EC2y	EC2z
3.12	-3.1671	3.5336	1.8718	-0.71131	-3.5436	2.7705	-9.3812	717.534	-37.1726	264.7595	43.555	693.5656	-0.0592	0.0182	-0.0073	-0.0462	0.0165	0.9585
3.1407	-2.3587	2.5531	1.3856	-0.56429	-2.6446	2.0714	-9.7538	725.4277	-36.8969	267.7428	43.548	700.8542	-0.0592	0.0182	-0.0073	-0.0462	0.0165	0.9585
3.1614	-1.6768	1.7296	0.95983	-0.44198	-1.8642	1.4896	-10.4526	738.4246	-36.9764	272.5982	43.934	712.3887	-0.0592	0.0182	-0.0073	-0.0462	0.0165	0.9585
3.1821	-1.161	1.1196	0.62615	-0.35356	-1.2565	1.0609	-11.4221	757.1567	-37.4154	279.5418	44.681	728.711	-0.0592	0.0182	-0.0073	-0.0462	0.0165	0.9585
3.2029	-0.81159	0.72605	0.38953	-0.29921	-0.82645	0.7842	-12.5208	781.2353	-38.1381	288.4112	45.6574	749.4692	-0.0592	0.0182	-0.0073	-0.0462	0.0165	0.9585
3.2236	-0.60817	0.51457	0.23988	-0.27328	-0.55218	0.63324	-13.5813	809.0021	-39.0303	298.5755	46.6871	773.1644	-0.0592	0.0182	-0.0073	-0.0462	0.0165	0.9585
3.2443	-0.51859	0.42788	0.15915	-0.26498	-0.40107	0.56437	-14.4329	837.6301	-39.9539	308.9787	47.5722	797.2289	-0.0592	0.0182	-0.0073	-0.0462	0.0165	0.9585
3.265	-0.51031	0.40073	0.12607	-0.25886	-0.33732	0.52674	-14.9212	863.605	-40.7564	318.3174	48.111	818.4707	-0.0592	0.0182	-0.0073	-0.0462	0.0165	0.9585
3.2857	-0.55905	0.36367	0.12156	-0.23485	-0.32995	0.46571	-14.9348	883.4064	-41.3048	325.2887	48.1368	833.7142	-0.0592	0.0182	-0.0073	-0.0462	0.0165	0.9585
3.3064	-0.65	0.24354	0.12959	-0.16854	-0.35554	0.31843	-14.4421	894.2124	-41.5189	328.8509	47.5647	840.4637	-0.0592	0.0182	-0.0073	-0.0462	0.0165	0.9585
3.3271	-0.77193	-0.035701	0.13836	-0.03271	-0.3979	0.011939	-13.475	894.4804	-41.3825	328.4415	46.3991	837.4192	-0.0592	0.0182	-0.0073	-0.0462	0.0165	0.9585
3.3479	-0.90957	-0.54658	0.13921	0.19879	-0.44408	-0.53034	-12.0894	884.2376	-40.9292	324.0849	44.7083	824.716	-0.0592	0.0182	-0.0073	-0.0462	0.0165	0.9585
3.3686	-1.0438	-1.3485	0.1237	0.54608	-0.47804	-1.3706	-10.3575	864.9919	-40.2304	316.3574	42.6103	803.8247	-0.0592	0.0182	-0.0073	-0.0462	0.0165	0.9585
3.3893	-1.1463	-2.4623	0.084348	1.0145	-0.4776	-2.533	-8.3393	839.3677	-39.3949	306.2494	40.2569	777.1871	-0.0592	0.0182	-0.0073	-0.0462	0.0165	0.9585
3.41	-1.1716	-3.8353	0.015651	1.5818	-0.41892	-3.9696	-6.061	810.5637	-38.5525	294.9638	37.8087	747.7148	-0.0592	0.0182	-0.0073	-0.0462	0.0165	0.9585
3.4307	-1.0563	-5.3064	-0.086061	2.1819	-0.27393	-5.5136	-3.5149	781.7636	-37.8216	283.7005	35.4023	718.2585	-0.0592	0.0182	-0.0073	-0.0462	0.0165	0.9585
3.4514	-0.72012	-6.5616	-0.22069	2.685	-0.0081734	-6.8371	-0.67306	755.6505	-37.2775	273.4775	33.1212	691.173	-0.0592	0.0182	-0.0073	-0.0462	0.0165	0.9585
3.4721	-0.073644	-7.0786	-0.3833	2.8775	0.41382	-7.3955	2.4806	734.0896	-36.9347	265.0126	30.9868	668.0547	-0.0592	0.0182	-0.0073	-0.0462	0.0165	0.9585
3.4929	0.97054	-6.0848	-0.56155	2.4466	1.0197	-6.3795	5.9229	717.9659	-36.7576	258.6596	28.9792	649.6248	-0.0592	0.0182	-0.0073	-0.0462	0.0165	0.9585
3.5136	2.4775	-2.5435	-0.7297	0.97411	1.8104	-2.7032	9.5926	707.1458	-36.6862	254.3882	27.0615	635.7183	-0.0592	0.0182	-0.0073	-0.0462	0.0165	0.9585
3.5343	4.4521	4.8	-0.84414	-2.0451	2.7388	4.9511	13.3923	700.567	-36.6542	251.8155	25.1997	625.3883	-0.0592	0.0182	-0.0073	-0.0462	0.0165	0.9585
3.555	6.7832	17.2832	-0.83584	-7.1482	3.6809	17.9949	17.1812	696.3964	-36.5903	250.2647	23.3716	617.0669	-0.0592	0.0182	-0.0073	-0.0462	0.0165	0.9585
3.5757	9.1467	36.0662	-0.5993	-14.7961	4.388	37.6703	20.7635	692.2571	-36.4137	248.849	21.57	608.7761	-0.0592	0.0182	-0.0073	-0.0462	0.0165	0.9585
3.5964	10.8406	61.7767	0.0070847	-25.2311	4.4217	64.6855	23.8925	685.5816	-36.0426	246.5984	19.8102	598.4355	-0.0592	0.0182	-0.0073	-0.0462	0.0165	0.9585
3.6171	10.9718	94.2302	1.1689	-38.3605	3.226	98.9092	26.3078	674.0237	-35.4178	242.6131	18.1373	584.2054	-0.0592	0.0182	-0.0073	-0.0462	0.0165	0.9585
3.6379	9.2212	132.6394	3.0941	-53.836	0.45186	139.5505	27.8024	655.8731	-34.5177	236.223	16.6161	564.7993	-0.0592	0.0182	-0.0073	-0.0462	0.0165	0.9585
3.6586	5.8045	175.4387	5.9523	-70.9968	-3.991	184.9258	28.2613	630.3582	-33.3486	227.1077	15.3059	539.7025	-0.0592	0.0182	-0.0073	-0.0462	0.0165	0.9585
3.6793	1.2594	220.3477	9.6236	-88.9238	-9.7493	232.5328	27.6916	597.83	-31.9329	215.3726	14.2375	509.3036	-0.0592	0.0182	-0.0073	-0.0462	0.0165	0.9585
3.7	-3.7294	265.1756	13.6076	-106.7678	-15.9946	279.9197	26.2262	559.7506	-30.3195	201.549	13.4159	474.8639	-0.0592	0.0182	-0.0073	-0.0462	0.0165	0.9585
3.7207	-8.5927	308.5685	17.3996	-124.0182	-21.9534	325.5312	24.0763	518.2865	-28.5875	186.4446	12.8327	438.1706	-0.0592	0.0182	-0.0073	-0.0462	0.0165	0.9585
3.7414	-12.9322	349.8417	20.6676	-140.4202	-27.1159	368.5556	21.4787	475.642	-26.8133	170.8937	12.4553	400.992	-0.0592	0.0182	-0.0073	-0.0462	0.0165	0.9585
3.7621	-16.4493	388.4869	23.2927	-155.7741	-31.2441	408.3987	18.6669	433.5095	-25.0267	155.5452	12.2079	364.6465	-0.0592	0.0182	-0.0073	-0.0462	0.0165	0.9585
3.7829	-18.9305	423.9313	25.3455	-169.8419	-34.3335	444.4263	15.8601	392.9276	-23.2391	140.7982	11.9994	329.9022	-0.0592	0.0182	-0.0073	-0.0462	0.0165	0.9585
3.8036	-20.2817	455.7041	26.9848	-182.4238	-36.5208	476.1414	13.2586	354.4308	-21.4842	126.8505	11.7623	297.1097	-0.0592	0.0182	-0.0073	-0.0462	0.0165	0.9585
3.8243	-20.5531	483.6971	28.3442	-193.4711	-37.9755	503.4586	11.0135	318.3141	-19.7989	113.8033	11.4531	266.4406	-0.0592	0.0182	-0.0073	-0.0462	0.0165	0.9585
3.845	-19.9172	508.2209	29.476	-203.1127	-38.8315	526.7624	9.2194	284.8525	-18.1838	101.7479	11.026	238.0771	-0.0592	0.0182	-0.0073	-0.0462	0.0165	0.9585
3.8657	-18.6097	529.8344	30.365	-211.5809	-39.1747	546.7197	7.9131	254.3667	-16.6129	90.7925	10.4413	212.262	-0.0592	0.0182	-0.0073	-0.0462	0.0165	0.9585
3.8864	-16.8904	549.1135	31.0007	-219.1119	-39.1004	564.0359	7.0678	227.1288	-15.0739	81.0279	9.696	189.2186	-0.0592	0.0182	-0.0073	-0.0462	0.0165	0.9585
3.9071	-14.9862	566.5486	31.4143	-225.9024	-38.7275	579.3213	6.6033	203.1687	-13.5925	72.4548	8.8389	168.9754	-0.0592	0.0182	-0.0073	-0.0462	0.0165	0.9585
3.9279	-13.046	582.5625	31.6602	-232.1179	-38.1663	593.085	6.4011	182.1407	-12.2194	64.9363	7.9524	151.247	-0.0592	0.0182	-0.0073	-0.0462	0.0165	0.9585
3.9486	-11.1399	597.4885	31.818	-237.8845	-37.5243	605.7071	6.3166	163.3532	-11.005	58.2124	7.1253	135.4598	-0.0592	0.0182	-0.0073	-0.0462	0.0165	0.9585
3.9693	-9.2862	611.5482	31.9914	-243.2822	-36.9067	617.4278	6.2005	145.9161	-9.9798	51.9586	6.4292	120.8712	-0.0592	0.0182	-0.0073	-0.0462	0.0165	0.9585
3.99	-7.4813	624.8998	32.2782	-248.3682	-36.3977	628.4131	5.9282	128.9735	-9.1436	45.8697	5.9034	106.7647	-0.0592	0.0182	-0.0073	-0.0462	0.0165	0.9585
4.0107	-5.7403	637.7011	32.7432	-253.2012	-36.0534	638.8289	5.4263	111.9395	-8.4578	39.743	5.5386	92.6421	-0.0592	0.0182	-0.0073	-0.0462	0.0165	0.9585
4.0314	-4.1125	650.1241	33.4221	-257.8468	-35.92	648.8614	4.6887	94.6511	-7.8496	33.53	5.2774	78.3465	-0.0592	0.0182	-0.0073	-0.0462	0.0165	0.9585
4.0521	-2.6909	662.347	34.3251	-262.3775	-36.0405	658.7195	3.765	77.3611	-7.2271	27.3309	5.0365	64.0673	-0.0592	0.0182	-0.0073	-0.0462	0.0165	0.9585
4.0729	-1.6117	674.56	35.4363	-266.8725	-36.4545	668.643	2.7341	60.6144	-6.5007	21.3468	4.7306	50.2477	-0.0592	0.0182	-0.0073	-0.0462	0.0165	0.9585
4.0936	-1.0237	687.0112	36.7111	-271.4318	-37.1837	678.9295	1.6905	45.0758	-5.6156	15.8178	4.2965	37.4394	-0.0592	0.0182	-0.0073	-0.0462	0.0165	0.9585
4.1143	-1.0808	700.0913	38.0979	-276.2116	-38.241	690.0104	0.74533	31.3805	-4.5754	10.9676	3.7057	26.1722	-0.0592	0.0182	-0.0073	-0.0462	0.0165	0.9585
4.135	-1.9203	714.4275	39.5481	-281.4636	-39.6332	702.5191	0.0093193	20.027	-3.4462	6.9657	2.9783	16.8552	-0.0592	0.0182	-0.0073	-0.0462	0.0165	0.9585
4.1557	-3.5917	730.8508	40.9981	-287.525	-41.3136	717.2329	-0.44929	11.2818	-2.3417	3.8978	2.186	9.6992	-0.0592	0.0182	-0.0073	-0.0462	0.0165	0.9585
4.1764	-6.0045	750.1381	42.3785	-294.7178	-43.1731	734.8089	-0.66235	5.1229	-1.3866	1.7478	1.4404	4.6747	-0.0592	0.0182	-0.0073	-0.0462	0.0165	0.9585
4.1971	-8.9102	772.6469	43.6313	-303.205	-45.0532	755.4298	-0.71332	1.2326	-0.65049	0.39779	0.82498	1.5133	-0.0592	0.0182	-0.0073	-0.0462	0.0165	0.9585
4.2179	-11.9272	798.0101	44.7076	-312.8664	-46.7572	778.5368	-0.6706	-0.87355	-0.13756	-0.32654	0.36853	-0.18796	-0.0592	0.0182	-0.0073	-0.0462	0.0165	0.9585
4.2386	-14.6224	824.8977	45.5791	-323.1968	-48.0945	802.6555	-0.58372	-1.7068	0.18264	-0.60605	0.065418	-0.85288	-0.0592	0.0182	-0.0073	-0.0462	0.0165	0.9585
4.2593	-16.5976	850.9729	46.2421	-333.2791	-48.9184	825.4019	-0.48605	-1.7242	0.35346	-0.60126	-0.11025	-0.86158	-0.0592	0.0182	-0.0073	-0.0462	0.0165	0.9585
4.28	-17.5544	873.1883	46.7112	-341.8991	-49.1431	843.8028	-0.39865	-1.2905	0.41914	-0.43993	-0.19121	-0.51171	-0.0592	0.0182	-0.0073	-0.0462	0.0165	0.9585
4.3007	-17.3347	888.3878	47.0047	-347.7892	-48.7481	854.8857	-0.33345	-0.67351	0.41552	-0.2151	-0.20563	-0.019594	-0.0592	0.0182	-0.0073	-0.0462	0.0165	0.9585
